<?xml version="1.0" standalone="no"?>
<!DOCTYPE svg PUBLIC "-//W3C//DTD SVG 20010904//EN"
 "http://www.w3.org/TR/2001/REC-SVG-20010904/DTD/svg10.dtd">
<svg version="1.0" xmlns="http://www.w3.org/2000/svg"
 width="110.000000pt" height="110.000000pt" viewBox="0 0 900.000000 1272.000000"
 preserveAspectRatio="xMidYMid meet">
<metadata>
Created by potrace 1.10, written by Peter Selinger 2001-2011
</metadata>
<g transform="translate(0.000000,1272.000000) scale(0.100000,-0.100000)"
fill="#f10404" stroke="none">
<path d="M4728 8724 c-3 -3 -50 -9 -104 -15 -55 -5 -115 -16 -134 -23 -19 -8
-55 -17 -80 -20 -93 -12 -140 -23 -158 -39 -10 -10 -31 -17 -46 -17 -15 0 -53
-13 -84 -28 -31 -16 -79 -34 -107 -42 -27 -7 -55 -19 -61 -26 -6 -7 -30 -20
-55 -28 -66 -23 -169 -81 -214 -121 -22 -19 -50 -38 -62 -41 -13 -3 -23 -10
-23 -14 0 -5 -10 -12 -22 -16 -13 -4 -35 -19 -49 -33 -15 -14 -45 -39 -68 -56
-60 -43 -168 -144 -253 -238 -31 -34 -77 -84 -102 -111 -26 -27 -46 -55 -46
-62 0 -6 -7 -14 -15 -18 -8 -3 -15 -10 -15 -16 0 -5 -20 -36 -44 -67 -24 -32
-53 -77 -65 -100 -11 -23 -25 -44 -30 -47 -17 -11 -104 -189 -117 -240 -7 -27
-20 -54 -29 -58 -8 -5 -15 -16 -15 -25 0 -20 -17 -77 -36 -118 -7 -16 -16 -48
-20 -70 -4 -22 -10 -44 -14 -50 -4 -5 -10 -26 -13 -45 -2 -19 -14 -71 -26
-115 -51 -189 -51 -746 0 -940 11 -44 24 -102 28 -130 4 -27 12 -60 19 -72 7
-12 12 -31 12 -43 0 -12 7 -28 15 -36 8 -9 15 -26 15 -38 0 -27 26 -94 45
-116 7 -8 16 -33 20 -55 7 -40 98 -230 116 -241 5 -3 21 -26 34 -52 41 -76 66
-116 86 -138 10 -11 19 -23 19 -26 0 -7 24 -37 77 -97 17 -20 47 -54 65 -75
61 -72 148 -156 178 -171 17 -9 30 -21 30 -28 0 -15 90 -94 131 -114 17 -8 41
-25 53 -37 46 -42 73 -61 114 -81 23 -11 42 -23 42 -27 0 -4 15 -13 33 -21 65
-28 83 -38 116 -62 19 -14 42 -25 52 -25 10 0 35 -11 55 -25 20 -14 45 -25 55
-25 11 0 48 -13 82 -30 35 -16 75 -30 89 -30 14 0 36 -8 49 -19 47 -36 228
-75 429 -91 154 -13 474 -11 600 2 148 16 338 59 375 84 11 8 34 14 52 14 17
0 35 5 38 11 9 14 113 59 137 59 11 0 37 14 58 30 21 17 48 30 59 30 27 0 83
28 94 46 4 8 14 14 21 14 16 0 43 14 103 53 24 15 45 27 49 27 3 0 22 13 41
30 18 16 39 30 46 30 7 0 18 9 25 20 7 11 19 20 27 20 7 0 43 29 79 65 36 36
68 65 73 65 13 0 153 144 153 157 0 7 5 13 10 13 12 0 100 91 100 103 0 5 20
32 45 60 25 29 45 57 45 64 0 7 6 16 13 20 14 9 77 108 77 122 0 5 7 11 15 15
8 3 15 12 15 19 0 8 7 20 15 27 8 7 15 21 15 31 0 10 14 41 30 67 17 27 30 55
30 62 0 7 13 37 30 67 17 29 30 60 30 70 0 9 6 24 13 32 7 9 19 34 25 56 6 22
22 78 36 125 13 47 29 123 36 169 6 46 15 91 20 100 22 42 33 226 26 448 -8
292 -12 334 -26 343 -6 4 -16 40 -21 81 -5 41 -16 97 -23 124 -8 28 -25 86
-37 130 -12 44 -28 85 -36 91 -7 6 -13 24 -13 39 0 15 -13 49 -29 74 -15 26
-32 58 -36 72 -4 13 -18 44 -31 68 -13 24 -24 51 -24 60 0 9 -14 29 -30 45
-17 16 -30 36 -30 43 0 16 -102 174 -125 193 -8 7 -15 19 -15 26 0 7 -11 21
-26 30 -14 9 -32 31 -41 48 -8 17 -79 93 -157 169 -176 172 -193 187 -203 187
-5 0 -23 14 -41 30 -18 17 -39 30 -47 30 -7 0 -16 7 -19 15 -3 9 -24 24 -46
34 -22 10 -46 25 -53 34 -18 24 -194 117 -222 117 -13 0 -32 8 -42 19 -10 10
-41 26 -70 35 -28 9 -57 24 -63 32 -7 7 -20 14 -30 14 -10 0 -34 7 -53 15 -20
8 -49 15 -65 15 -15 0 -33 5 -38 10 -13 13 -117 40 -153 40 -16 0 -45 7 -65
15 -65 27 -251 45 -477 45 -119 0 -218 -2 -221 -6z m478 -74 c16 -5 65 -14
109 -19 101 -12 167 -25 230 -44 28 -8 77 -23 109 -33 33 -9 71 -23 85 -30 14
-8 31 -14 37 -14 6 0 24 -6 40 -14 16 -7 44 -20 63 -27 55 -22 270 -133 295
-152 6 -4 38 -25 71 -47 79 -51 225 -168 304 -244 89 -86 259 -279 285 -325 6
-10 35 -53 64 -95 28 -42 52 -80 52 -85 0 -5 6 -16 13 -23 11 -12 87 -164 122
-243 33 -74 44 -102 50 -125 3 -14 10 -34 15 -45 13 -32 37 -117 45 -160 4
-22 11 -45 15 -50 11 -13 28 -123 40 -260 5 -60 15 -151 21 -202 7 -66 7 -120
-1 -190 -34 -310 -45 -376 -65 -420 -8 -17 -15 -41 -15 -53 0 -24 -25 -109
-46 -157 -8 -17 -14 -36 -14 -42 0 -6 -4 -19 -10 -29 -5 -9 -19 -39 -30 -67
-32 -76 -113 -238 -127 -253 -7 -7 -13 -18 -13 -23 0 -12 -123 -194 -168 -248
-154 -185 -246 -279 -340 -349 -27 -20 -57 -45 -67 -55 -10 -10 -30 -26 -44
-35 -14 -9 -36 -25 -48 -36 -12 -10 -31 -24 -42 -30 -11 -6 -53 -31 -93 -56
-97 -59 -273 -147 -309 -155 -16 -4 -29 -10 -29 -15 0 -4 -12 -10 -27 -13 -16
-3 -66 -19 -113 -36 -47 -17 -94 -30 -106 -31 -11 0 -24 -3 -28 -8 -10 -9
-109 -29 -206 -42 -41 -5 -93 -14 -115 -20 -52 -14 -473 -8 -580 9 -102 16
-216 39 -280 58 -97 27 -211 65 -255 84 -203 89 -287 134 -408 217 -46 31 -92
62 -103 68 -11 6 -30 20 -42 30 -12 11 -58 51 -102 88 -92 80 -157 145 -235
236 -30 36 -65 76 -77 90 -13 14 -23 28 -23 31 0 3 -11 19 -25 35 -14 16 -37
49 -52 74 -14 25 -29 47 -32 50 -4 3 -12 16 -19 30 -7 14 -22 41 -33 60 -37
61 -79 142 -79 153 0 6 -6 18 -14 26 -7 9 -23 45 -36 81 -12 36 -25 70 -29 75
-4 6 -17 44 -30 85 -13 41 -27 86 -32 100 -18 49 -55 244 -70 370 -14 109 -7
577 9 605 6 11 15 49 21 85 13 86 30 161 41 181 5 9 12 34 16 54 4 21 13 50
20 64 8 14 14 34 14 43 0 9 4 19 9 23 5 3 13 20 17 37 3 18 10 39 15 48 5 8
13 26 19 40 5 14 14 32 19 40 5 8 26 49 46 92 20 42 47 91 61 109 13 18 24 39
24 46 0 7 3 13 8 13 4 0 16 17 27 37 11 20 25 41 31 47 6 6 28 36 49 66 21 30
41 57 45 60 4 3 39 42 78 88 65 75 95 105 217 216 39 36 202 159 240 183 11 6
57 34 102 62 45 27 91 52 102 56 12 3 21 11 21 16 0 5 5 9 11 9 10 0 52 18
154 65 28 13 64 27 80 31 17 4 35 10 40 14 6 5 27 11 48 15 20 4 39 11 42 15
3 5 24 11 48 15 23 4 47 11 53 16 6 5 37 11 70 15 32 4 64 10 69 14 6 5 48 12
95 16 47 4 94 10 105 15 29 11 447 11 481 -1z"/>
<path d="M4785 8500 c-121 -12 -246 -30 -280 -39 -35 -11 -101 -28 -165 -43
-25 -5 -49 -14 -54 -19 -6 -5 -19 -9 -31 -9 -12 0 -30 -7 -41 -15 -10 -8 -25
-15 -32 -15 -32 0 -329 -147 -360 -177 -7 -7 -18 -13 -23 -13 -6 0 -16 -6 -23
-12 -8 -7 -24 -20 -37 -28 -138 -90 -348 -279 -436 -393 -24 -31 -58 -72 -74
-89 -16 -18 -29 -38 -29 -44 0 -7 -3 -14 -7 -16 -12 -5 -53 -66 -53 -78 0 -5
-3 -10 -8 -10 -4 0 -19 -21 -32 -47 -14 -27 -28 -50 -31 -53 -12 -10 -109
-217 -109 -232 0 -9 -4 -19 -9 -23 -5 -3 -19 -38 -31 -78 -11 -39 -25 -80 -31
-90 -10 -19 -20 -61 -44 -185 -8 -40 -17 -76 -20 -82 -6 -10 -27 -255 -27
-315 1 -102 22 -383 31 -410 6 -16 15 -57 21 -90 24 -133 29 -157 39 -168 5
-7 12 -29 16 -50 4 -20 11 -40 16 -43 5 -3 9 -12 9 -21 0 -8 7 -31 16 -51 8
-21 21 -50 28 -67 33 -77 90 -190 98 -193 4 -2 8 -9 8 -16 0 -25 157 -252 250
-360 53 -62 198 -200 255 -244 33 -26 66 -52 74 -60 16 -16 172 -119 226 -150
77 -43 267 -132 283 -132 5 0 23 -7 38 -15 16 -8 37 -15 46 -15 9 0 19 -4 22
-9 4 -5 25 -12 49 -16 23 -4 47 -11 52 -15 17 -14 230 -53 380 -71 106 -13
430 -6 495 10 25 6 72 15 105 20 95 15 169 32 180 41 6 4 29 11 52 15 24 4 45
11 49 16 3 5 15 9 27 9 12 1 40 9 62 20 22 11 44 19 50 20 11 0 258 121 265
130 3 4 12 10 20 13 8 4 29 16 45 27 17 11 40 25 53 31 12 7 22 16 22 21 0 4
5 8 10 8 42 0 389 321 460 425 19 28 39 55 46 60 27 23 139 209 195 325 34 69
65 133 70 142 5 10 9 23 9 30 1 7 9 31 20 53 11 22 19 49 20 61 0 11 4 24 9
30 5 5 14 29 19 54 6 25 16 65 22 90 38 159 55 296 55 470 0 138 -19 371 -35
425 -5 17 -13 53 -18 80 -19 95 -34 150 -43 160 -5 5 -9 18 -9 30 -1 11 -9 38
-20 60 -11 22 -19 46 -20 53 0 7 -4 20 -9 30 -4 9 -23 49 -41 87 -17 39 -36
77 -40 85 -5 8 -19 35 -31 59 -20 39 -39 70 -101 165 -100 151 -297 368 -423
464 -33 26 -65 51 -72 57 -28 23 -41 33 -108 77 -38 25 -101 63 -140 83 -38
21 -77 42 -85 46 -29 16 -149 69 -156 69 -4 0 -25 9 -48 19 -23 10 -68 27
-101 36 -33 10 -71 22 -85 27 -30 10 -83 20 -301 58 -77 14 -347 20 -444 10z
m466 -87 c57 -5 103 -14 113 -22 9 -8 45 -20 79 -27 34 -7 94 -22 132 -34 39
-12 94 -28 123 -35 30 -8 61 -20 70 -27 31 -24 80 -48 100 -48 11 0 22 -6 25
-12 2 -7 28 -22 56 -33 28 -11 51 -23 51 -27 0 -7 32 -27 78 -47 12 -6 22 -15
22 -21 0 -5 6 -10 13 -10 8 0 27 -11 43 -25 16 -14 34 -25 40 -25 7 0 31 -18
55 -40 24 -22 58 -52 74 -66 72 -62 228 -221 241 -246 8 -16 19 -28 24 -28 5
0 17 -15 26 -32 9 -18 34 -56 56 -84 21 -28 38 -55 38 -61 0 -5 9 -18 20 -28
11 -10 31 -41 45 -69 14 -28 30 -58 35 -66 25 -42 101 -215 125 -285 30 -92
41 -134 56 -225 6 -36 15 -70 20 -76 5 -7 14 -76 19 -155 6 -79 12 -155 15
-169 2 -14 -1 -106 -7 -205 -8 -129 -15 -185 -26 -197 -7 -9 -11 -21 -8 -27 4
-6 -2 -38 -14 -72 -11 -34 -20 -78 -20 -97 0 -18 -7 -46 -15 -60 -15 -28 -45
-116 -45 -132 0 -5 -13 -31 -30 -57 -16 -26 -30 -59 -30 -74 0 -15 -8 -35 -17
-45 -10 -9 -32 -47 -51 -83 -18 -36 -44 -77 -58 -92 -13 -14 -24 -30 -24 -35
0 -6 -9 -19 -20 -29 -11 -10 -20 -22 -20 -27 0 -10 -12 -27 -94 -131 -78 -98
-262 -275 -328 -316 -21 -12 -38 -26 -38 -31 0 -9 -124 -91 -157 -103 -13 -5
-23 -13 -23 -18 0 -5 -6 -9 -12 -9 -7 0 -40 -18 -73 -40 -33 -22 -67 -40 -77
-40 -9 0 -19 -4 -22 -9 -8 -13 -93 -51 -113 -51 -9 0 -36 -10 -60 -21 -51 -25
-206 -68 -244 -69 -14 0 -29 -4 -35 -10 -24 -24 -397 -50 -553 -39 -155 11
-293 28 -305 38 -6 5 -27 11 -46 14 -65 10 -155 34 -185 50 -16 8 -57 23 -90
33 -33 10 -67 23 -75 30 -8 6 -37 19 -64 28 -27 9 -73 33 -103 54 -93 63 -204
132 -213 132 -5 0 -17 8 -27 18 -10 10 -43 38 -73 62 -54 44 -152 132 -174
158 -6 7 -46 49 -88 94 -43 45 -81 90 -84 102 -4 11 -17 29 -30 39 -13 10 -24
23 -24 30 0 6 -25 47 -54 93 -30 45 -58 93 -61 107 -4 15 -13 31 -21 38 -8 6
-14 17 -14 24 0 7 -7 18 -15 25 -8 7 -15 22 -15 34 0 12 -9 29 -20 39 -11 9
-20 28 -20 41 0 14 -4 28 -10 31 -5 3 -10 15 -10 25 0 10 -7 26 -15 34 -9 9
-22 46 -30 83 -7 38 -21 95 -30 128 -34 125 -45 245 -45 495 0 279 9 371 51
520 16 58 29 117 29 132 0 15 8 34 17 44 20 20 43 78 43 111 0 12 5 25 10 28
6 4 24 34 41 68 65 132 100 193 119 209 11 9 20 21 20 27 0 13 61 101 71 101
4 0 9 10 13 23 3 13 26 43 51 68 24 24 59 63 77 87 17 23 36 42 41 42 5 0 39
32 76 70 37 39 73 70 81 70 8 0 26 14 39 30 13 17 29 30 37 30 8 0 14 4 14 9
0 10 38 34 73 47 9 3 17 13 17 20 0 8 6 14 14 14 18 0 86 39 86 49 0 9 72 41
92 41 9 0 18 7 22 15 3 8 12 15 20 15 18 0 95 39 114 57 7 7 24 13 38 13 13 0
41 7 61 15 21 8 90 28 154 44 64 16 130 36 147 45 19 10 59 16 104 17 40 1 87
5 103 9 34 9 344 5 486 -7z"/>
<path d="M5116 7974 c-9 -24 -7 -54 4 -54 6 0 10 16 10 35 0 38 -4 44 -14 19z"/>
<path d="M5012 7860 c-12 -5 -42 -9 -67 -8 -36 2 -48 -2 -68 -24 -28 -30 -57
-84 -57 -105 0 -24 48 19 55 48 3 15 15 35 25 44 16 14 22 15 42 4 13 -7 27
-12 32 -11 14 4 36 -19 36 -38 0 -10 7 -23 15 -30 10 -8 15 -31 15 -67 0 -50
21 -113 38 -113 4 0 6 18 4 40 -4 35 -1 41 22 50 37 14 33 37 -9 44 -44 9 -58
34 -49 91 5 39 10 45 30 45 17 0 28 -8 35 -27 16 -39 23 -11 9 32 -10 32 -15
35 -48 34 -20 0 -47 -4 -60 -9z"/>
<path d="M5135 7727 c-4 -10 -5 -21 -1 -24 10 -10 18 4 13 24 -4 17 -4 17 -12
0z"/>
<path d="M4920 7721 c0 -5 -17 -19 -37 -31 l-38 -22 35 -17 35 -16 0 -175 c0
-96 -4 -203 -9 -236 -14 -98 -2 -149 48 -203 66 -70 75 -95 74 -197 0 -49 -1
-152 -2 -229 l-1 -140 37 -65 c26 -45 83 -111 183 -210 80 -79 145 -152 145
-162 0 -10 29 -39 68 -68 141 -105 161 -124 192 -175 13 -22 37 -51 52 -65 37
-32 35 -59 -4 -92 -32 -26 -32 -27 -14 -41 24 -18 17 -38 -20 -57 -56 -28
-117 -80 -155 -132 -22 -29 -43 -54 -47 -57 -4 -4 -20 -24 -36 -46 -16 -22
-42 -50 -57 -62 -14 -13 -30 -34 -33 -48 -9 -35 -42 -51 -72 -34 -13 7 -24 21
-24 31 0 21 52 103 96 153 14 17 47 57 72 90 49 64 62 76 130 127 26 20 49 47
57 68 7 19 15 42 19 51 4 9 -2 25 -16 40 -13 14 -35 44 -51 67 -15 23 -44 53
-65 66 -20 13 -57 40 -80 60 -24 20 -50 36 -57 36 -7 0 -16 12 -20 27 -3 14
-60 83 -127 152 -66 69 -128 137 -137 151 -8 14 -35 51 -58 84 l-43 58 0 267
0 266 -33 21 c-17 12 -41 39 -52 60 -13 24 -29 40 -43 42 -25 4 -28 26 -12 82
14 46 30 381 20 400 -14 26 -34 -33 -23 -67 5 -15 6 -39 2 -53 -4 -14 -7 -51
-8 -82 -1 -32 -5 -58 -11 -58 -5 0 -10 20 -10 45 0 25 -4 45 -10 45 -11 0 -14
-267 -4 -294 3 -9 12 -16 20 -16 9 0 14 -11 14 -29 0 -23 5 -30 23 -33 18 -2
23 -10 25 -40 3 -32 -1 -39 -27 -52 -32 -17 -51 -62 -51 -121 0 -17 -5 -36
-11 -42 -8 -8 -5 -13 10 -18 18 -5 21 -14 21 -59 0 -44 -4 -56 -25 -74 -19
-16 -24 -29 -20 -47 3 -14 7 -37 10 -51 6 -29 -11 -94 -25 -94 -5 0 -22 -19
-38 -42 -17 -24 -60 -73 -96 -110 -36 -37 -66 -71 -66 -76 0 -5 -12 -19 -26
-33 -56 -53 -88 -111 -94 -174 l-5 -60 -35 2 c-42 3 -98 -14 -123 -36 -30 -25
-77 -100 -77 -121 0 -10 -4 -22 -10 -25 -5 -3 -10 -22 -10 -41 0 -38 16 -42
34 -9 6 11 19 31 29 44 9 13 17 31 17 41 0 9 11 26 25 36 14 10 34 34 45 52
22 36 39 40 75 16 33 -22 32 -34 -11 -75 -20 -18 -47 -51 -60 -71 -23 -36 -32
-78 -16 -78 4 0 14 -13 23 -28 15 -27 15 -30 -3 -55 -11 -15 -29 -27 -42 -27
-23 0 -66 48 -66 74 0 9 -9 20 -19 26 -27 14 -31 13 -31 -8 0 -26 28 -80 65
-127 18 -22 40 -53 48 -70 9 -16 46 -57 83 -90 37 -33 93 -86 123 -119 32 -33
75 -67 100 -78 45 -19 45 -19 73 2 15 11 31 20 36 20 15 0 22 -38 22 -121 0
-49 5 -82 14 -95 13 -18 15 -15 22 35 6 45 12 56 37 72 58 35 99 119 91 183
-6 41 -8 44 -25 33 -11 -7 -19 -21 -19 -33 0 -12 -7 -27 -15 -34 -8 -7 -15
-25 -15 -40 0 -41 -10 -60 -31 -60 -26 0 -36 59 -15 97 8 15 20 40 27 56 6 15
15 27 20 27 5 0 9 6 9 13 0 6 5 29 11 50 8 29 15 37 33 37 31 0 42 -16 49 -71
3 -25 11 -58 17 -73 l10 -27 30 17 30 18 -2 148 c-1 125 1 151 15 166 22 24
21 41 0 65 -14 15 -18 38 -19 101 -1 44 -5 158 -9 252 -7 157 -7 171 9 177 25
10 42 -2 134 -98 46 -48 99 -93 118 -101 25 -11 36 -22 41 -44 3 -18 25 -48
57 -77 99 -90 156 -161 148 -182 -6 -16 -77 -103 -123 -150 -55 -57 -131 -190
-141 -246 -2 -14 -11 -20 -28 -20 -23 0 -25 4 -28 54 -2 42 1 58 16 75 11 11
21 26 23 33 5 13 39 57 127 159 88 104 88 106 -44 249 -59 63 -111 115 -115
115 -5 0 -33 25 -62 56 -30 31 -59 54 -64 51 -16 -10 -4 -316 14 -356 13 -29
15 -63 10 -205 -4 -105 -12 -192 -21 -226 -16 -57 -12 -100 8 -100 7 0 22 -20
34 -44 22 -42 22 -94 2 -121 -5 -5 -11 -32 -15 -60 -9 -60 -28 -100 -52 -109
-10 -4 -45 -4 -79 -1 -47 5 -68 3 -93 -9 -40 -21 -40 -36 2 -36 17 0 39 -5 47
-10 10 -6 20 -4 33 7 15 15 22 15 53 4 35 -13 37 -12 75 25 21 21 39 46 39 55
0 10 4 21 10 24 6 3 10 35 10 70 0 35 5 67 11 71 7 4 8 20 5 43 -4 20 -11 65
-15 101 -5 36 -14 91 -20 124 -13 61 -8 106 11 106 8 0 9 -21 4 -70 -5 -58 -3
-72 9 -76 8 -4 39 -30 67 -59 42 -42 62 -54 96 -59 39 -6 48 -3 90 28 26 19
58 48 72 64 14 17 43 52 65 78 22 26 50 58 63 70 12 12 22 26 22 32 0 6 9 13
19 17 29 9 111 101 112 127 1 13 0 31 -1 42 -1 10 8 27 19 37 12 11 21 30 21
44 0 25 -44 120 -60 130 -6 3 -10 15 -10 25 0 11 -9 24 -19 30 -11 5 -22 18
-25 27 -3 10 -26 34 -52 53 -25 19 -53 43 -62 53 -9 9 -24 17 -33 17 -9 0 -22
13 -29 29 -6 16 -77 96 -156 177 -79 81 -144 156 -144 166 0 10 -16 32 -35 49
-34 30 -35 34 -35 100 0 39 -4 69 -10 69 -5 0 -10 -10 -10 -22 0 -13 -4 -29
-9 -36 -17 -27 -28 112 -15 190 6 34 9 36 26 27 22 -12 49 3 29 15 -6 4 -11
39 -11 82 0 73 -5 85 -27 63 -13 -13 -28 54 -17 73 5 7 7 25 6 41 -2 16 2 35
7 41 6 7 13 75 16 152 6 131 18 207 37 229 13 15 9 25 -7 19 -20 -8 -45 13
-45 38 0 13 -6 18 -17 16 -24 -4 -31 -66 -9 -74 18 -7 22 -65 6 -94 -6 -10
-10 -79 -11 -152 -1 -164 -5 -188 -29 -188 -10 0 -22 5 -25 10 -4 6 -6 161 -6
344 l2 334 -27 21 c-28 22 -44 27 -44 12z m-41 -845 c14 -16 31 -181 30 -291
-1 -93 -17 -149 -45 -153 -39 -5 -72 111 -39 138 19 16 21 164 3 240 -11 48
-10 54 7 66 24 17 30 17 44 0z m-41 -483 c6 -15 12 -45 12 -67 0 -36 -7 -47
-82 -125 -195 -204 -218 -229 -218 -237 0 -13 -63 -74 -77 -74 -7 0 -13 -4
-13 -10 0 -14 -27 -13 -36 1 -4 7 1 16 10 21 9 5 16 16 16 24 0 32 50 120 82
143 18 13 45 40 60 59 15 19 50 59 77 87 89 96 121 145 115 172 -4 16 -2 28 6
33 19 12 33 3 48 -27z m145 -116 c18 -33 18 -36 2 -61 -33 -50 -113 -23 -102
33 23 109 33 124 62 88 11 -15 28 -42 38 -60z m-95 -281 c2 -138 6 -183 17
-199 19 -27 19 -68 0 -93 -19 -25 -19 -49 0 -77 13 -20 13 -26 -1 -52 -9 -17
-12 -40 -9 -57 9 -40 -4 -105 -22 -112 -23 -9 -43 13 -43 47 0 17 -5 45 -12
63 -8 24 -8 46 1 95 19 96 24 194 11 218 -8 16 -8 49 1 127 16 140 9 147 -71
63 -132 -139 -154 -160 -169 -157 -9 2 -17 12 -19 23 -2 14 31 54 110 135 129
132 165 162 187 158 14 -3 16 -29 19 -182z m-180 -159 c2 -18 -2 -29 -12 -33
-9 -3 -16 -12 -16 -20 0 -7 -13 -33 -30 -57 -16 -25 -30 -50 -30 -57 0 -6 20
-32 45 -57 50 -50 54 -76 14 -81 -21 -2 -34 7 -66 45 -70 84 -70 86 -28 169
36 72 87 128 109 121 6 -2 12 -16 14 -30z m564 -87 c32 -41 58 -84 57 -95 0
-56 -124 -174 -152 -146 -8 8 -5 17 10 33 11 13 23 31 27 41 3 11 15 21 26 24
15 4 20 14 20 41 0 35 -15 55 -112 153 -27 26 -35 49 -22 62 16 15 92 -44 146
-113z m-753 100 c19 0 7 -69 -19 -112 -57 -95 -55 -90 -26 -113 15 -11 53 -46
85 -77 32 -32 62 -58 68 -58 6 0 34 -22 62 -49 42 -40 52 -56 57 -93 7 -48 -7
-88 -30 -88 -17 0 -26 22 -26 60 0 21 -12 40 -46 72 -25 24 -76 72 -112 107
-49 48 -73 64 -96 65 -29 1 -32 5 -40 53 -5 28 -6 62 -2 75 7 29 67 98 85 98
7 0 3 8 -10 18 -29 24 -20 57 14 48 12 -3 28 -6 36 -6z m256 -160 c0 -88 -3
-109 -13 -105 -8 3 -20 5 -28 5 -7 0 -21 14 -29 31 -16 30 -14 72 6 109 4 8
10 27 14 43 4 20 11 27 28 27 21 0 22 -3 22 -110z m383 65 c2 -11 7 -29 12
-40 25 -53 29 -75 19 -109 -19 -69 -64 -33 -74 59 -3 33 -9 73 -12 88 -5 26
-3 28 23 25 20 -2 30 -9 32 -23z m-737 -251 c15 -27 44 -61 66 -76 21 -15 60
-51 87 -80 26 -29 61 -66 77 -83 35 -36 36 -45 5 -74 -32 -30 -80 -26 -84 8
-2 13 -20 42 -40 63 -21 22 -42 48 -47 59 -6 10 -35 31 -65 46 -42 22 -59 38
-77 73 -12 25 -23 51 -23 58 0 18 48 64 62 60 7 -3 24 -27 39 -54z m719 16 c0
-5 -7 -10 -15 -10 -8 0 -15 5 -15 10 0 6 7 10 15 10 8 0 15 -4 15 -10z m20
-55 c0 -8 -6 -15 -14 -15 -8 0 -16 -7 -20 -15 -6 -17 -26 -21 -26 -5 0 15 33
50 47 50 7 0 13 -7 13 -15z"/>
<path d="M4811 7633 c0 -5 4 -17 9 -28 8 -18 9 -17 9 8 1 15 -3 27 -9 27 -5 0
-10 -3 -9 -7z"/>
<path d="M5135 7590 c-13 -54 -4 -123 15 -104 5 5 6 36 2 74 -7 63 -8 64 -17
30z"/>
<path d="M5173 6525 c-7 -21 21 -121 33 -115 5 3 7 12 5 20 -2 8 -5 36 -8 63
-5 47 -18 61 -30 32z"/>
<path d="M4934 5124 c-10 -15 -34 -46 -51 -70 -18 -24 -33 -47 -33 -51 0 -17
-52 -71 -75 -77 -26 -7 -35 -39 -14 -51 6 -4 8 -13 5 -20 -2 -7 6 -23 20 -36
l24 -22 2 29 c1 16 2 40 2 54 1 15 11 30 27 39 25 14 28 13 70 -22 23 -20 46
-37 51 -37 4 0 20 19 35 43 24 38 27 50 25 127 -1 74 -4 87 -23 103 -29 23
-43 22 -65 -9z m45 -93 c14 -26 -5 -81 -28 -81 -39 0 -52 40 -25 78 19 27 40
28 53 3z"/>
</g>
</svg>
