<?xml version="1.0" standalone="no"?>
<!DOCTYPE svg PUBLIC "-//W3C//DTD SVG 20010904//EN"
 "http://www.w3.org/TR/2001/REC-SVG-20010904/DTD/svg10.dtd">
<svg version="1.0" xmlns="http://www.w3.org/2000/svg"
 width="40.000000pt" height="40.000000pt" viewBox="0 0 300.000000 300.000000"
 preserveAspectRatio="xMidYMid meet">
<metadata>
Created by potrace 1.10, written by Peter Selinger 2001-2011
</metadata>
<g transform="translate(0.000000,300.000000) scale(0.100000,-0.100000)"
fill="#f5f5f5" stroke="none">
<path d="M1451 2665 c-24 -35 -23 -65 3 -65 12 0 13 -26 10 -162 -2 -90 -7
-174 -10 -188 -4 -14 -6 -47 -5 -73 2 -42 8 -54 42 -88 44 -44 54 -48 46 -19
-3 11 -1 66 3 123 5 56 11 179 15 273 l6 172 -33 31 c-18 17 -37 31 -43 31 -5
0 -21 -16 -34 -35z m69 -80 c0 -50 -14 -69 -16 -22 -1 18 -5 42 -9 55 -6 18
-4 21 9 16 11 -4 16 -19 16 -49z"/>
<path d="M1587 2653 c-11 -10 -8 -82 3 -104 20 -35 30 -19 30 46 0 48 -4 65
-13 65 -8 0 -17 -3 -20 -7z"/>
<path d="M1434 2415 c0 -93 2 -133 3 -88 2 45 2 122 0 170 -1 48 -3 12 -3 -82z"/>
<path d="M1587 2513 c-18 -17 1 -93 23 -93 15 0 12 76 -3 89 -8 6 -17 8 -20 4z"/>
<path d="M1423 2127 c4 -54 1 -91 -9 -119 -17 -48 -17 -48 -5 -48 5 0 13 10
18 23 11 32 19 -98 14 -251 -3 -106 -5 -123 -19 -120 -9 2 -24 27 -35 58 -17
48 -18 64 -9 130 6 42 14 84 18 94 5 13 4 17 -3 13 -6 -4 -19 -36 -28 -72 -21
-77 -16 -158 13 -225 11 -25 22 -66 25 -92 4 -47 4 -48 -49 -89 -29 -22 -78
-70 -109 -105 -31 -35 -63 -64 -71 -64 -26 0 -65 -112 -43 -125 5 -4 58 41
118 100 103 101 158 145 183 145 8 0 9 -41 5 -146 -5 -119 -3 -151 9 -169 13
-20 12 -27 -7 -69 -21 -48 -21 -77 -4 -177 4 -22 2 -46 -5 -59 -9 -17 -9 -28
0 -50 11 -27 9 -33 -28 -77 -35 -42 -41 -56 -47 -116 -6 -63 -5 -69 12 -65 10
2 27 21 38 43 11 22 26 45 34 51 10 8 12 23 8 58 -8 57 7 61 19 4 10 -47 28
-59 39 -26 6 19 8 20 12 5 9 -35 22 -15 33 55 7 39 10 97 7 127 -4 33 -1 69 5
88 10 27 9 39 -6 69 -14 30 -18 76 -23 240 -3 112 -2 204 2 204 13 0 79 -52
94 -75 8 -11 35 -40 59 -64 44 -42 46 -43 95 -37 82 9 81 19 -7 102 -44 41
-101 91 -128 111 -26 21 -48 45 -48 55 0 10 -9 26 -21 36 -11 9 -29 34 -40 54
-17 33 -19 60 -19 263 0 196 -2 225 -15 225 -32 0 -65 47 -65 92 0 24 -5 50
-11 58 -8 11 -9 -6 -6 -63z m73 -571 c8 -21 25 -51 39 -68 14 -16 25 -34 25
-38 0 -5 15 -26 32 -46 l33 -37 -32 17 c-18 9 -38 16 -46 16 -13 0 -59 -43
-55 -51 2 -2 -5 5 -14 16 -10 11 -18 23 -18 28 0 4 -12 12 -26 17 -24 9 -24
11 -10 32 10 14 16 44 16 78 0 85 32 106 56 36z m241 -278 c20 -21 34 -40 30
-44 -9 -10 -62 32 -99 78 l-33 42 33 -19 c18 -11 49 -36 69 -57z m-247 -140
c-1 -43 -3 -49 -11 -35 -10 17 -4 87 6 87 3 0 5 -24 5 -52z m18 -217 c-2 -10
-9 -6 -22 13 -15 24 -16 32 -6 55 l13 26 9 -40 c5 -22 7 -46 6 -54z m-46 -21
c-2 -16 -8 -30 -13 -30 -5 0 -9 14 -9 30 0 18 5 30 13 30 9 0 12 -10 9 -30z
m48 -151 c0 -86 -3 -109 -14 -109 -9 0 -16 16 -20 43 -6 48 -1 161 9 177 17
27 25 -10 25 -111z"/>
<path d="M1803 1183 c-19 -2 -33 -10 -33 -17 0 -13 60 -73 105 -106 26 -19 85
-96 85 -110 0 -5 -33 -43 -72 -84 -75 -76 -93 -101 -140 -190 -26 -50 -26 -51
-7 -70 18 -20 19 -20 45 5 15 13 58 62 98 109 82 98 98 113 149 136 25 12 39
25 43 43 3 14 9 34 15 43 13 26 11 44 -7 59 -9 8 -27 31 -40 51 -13 21 -39 45
-56 54 -18 9 -52 32 -75 50 -23 19 -50 33 -60 32 -10 0 -33 -3 -50 -5z m128
-90 c86 -58 124 -109 114 -153 -6 -29 -20 -41 -94 -85 -7 -4 -2 12 13 37 14
25 26 55 26 68 0 29 -38 82 -99 137 -61 56 -44 54 40 -4z"/>
<path d="M985 1079 c-28 -22 -58 -58 -69 -78 l-18 -38 33 -46 c43 -57 53 -62
74 -31 15 23 15 27 1 43 -22 24 -20 34 10 62 14 13 35 36 45 51 19 26 19 29 3
53 -9 14 -19 25 -23 25 -3 0 -29 -18 -56 -41z"/>
<path d="M1038 879 c-36 -21 -17 -79 35 -105 43 -22 114 -92 128 -127 9 -21
17 -27 38 -25 32 4 41 15 41 50 0 33 -59 103 -94 112 -12 3 -44 28 -70 56 -50
54 -52 55 -78 39z"/>
<path d="M1460 498 c-43 -46 -50 -59 -50 -95 0 -36 5 -45 39 -72 52 -42 83
-41 111 4 12 19 24 50 27 69 9 57 -34 146 -71 146 -4 0 -29 -24 -56 -52z m76
-20 c11 -18 7 -97 -6 -113 -18 -22 -47 -18 -64 7 -23 32 -20 49 13 86 32 34
45 39 57 20z"/>
</g>
</svg>
